# xmcd
#
# Track frame offsets: 
#        150
#        23087
#        36931
#        54120
#        69089
#        83407
#        101801
#        118304
#        133778
#        151704
#        170627
#        191372
#        209013
#        228385
#
# Disc length: 3262 seconds
#
# Revision: 0
# Processed by: cddbd v1.5.2PL0 Copyright (c) Steve Scherf et al.
# Submitted via: ExactAudioCopy v1.0b1
#
DISCID=b30cbc0e
DTITLE=Two Doors Cinema - Beacon
DYEAR=2012
DGENRE=Indie
TTITLE0=Cigarettes in the Theatre
TTITLE1=Undercover Martyn
TTITLE2=Do You Want It All?
TTITLE3=This Is the Life
TTITLE4=Something Good Can Work
TTITLE5=Handshake
TTITLE6=Costume Party
TTITLE7=You Are Not Stubborn
TTITLE8=Settle
TTITLE9=Eat That Up Its Good for You
TTITLE10=What You Know
TTITLE11=Sleep Alone
TTITLE12=Come Back Home
TTITLE13=I Can Talk
EXTD=
EXTT0=
EXTT1=
EXTT2=
EXTT3=
EXTT4=
EXTT5=
EXTT6=
EXTT7=
EXTT8=
EXTT9=
EXTT10=
EXTT11=
EXTT12=
EXTT13=
PLAYORDER=
